<?xml version="1.0" encoding="utf-8"?>
<!-- Generator: Adobe Illustrator 27.5.0, SVG Export Plug-In . SVG Version: 6.00 Build 0)  -->
<svg version="1.1" id="Layer_1" xmlns="http://www.w3.org/2000/svg" xmlns:xlink="http://www.w3.org/1999/xlink" x="0px" y="0px"
	 viewBox="0 0 180 180" style="enable-background:new 0 0 180 180;" xml:space="preserve">
<style type="text/css">
	.st0{fill:url(#SVGID_1_);}
	.st1{fill:#FFFFFF;}
	.st2{opacity:0.5;fill:#FFFFFF;}
</style>
<linearGradient id="SVGID_1_" gradientUnits="userSpaceOnUse" x1="165.3316" y1="185.997" x2="91.9059" y2="91.9001">
	<stop  offset="0" style="stop-color:#D6CBE4"/>
	<stop  offset="0.9992" style="stop-color:#7760A9"/>
</linearGradient>
<rect x="0.69" y="0.49" class="st0" width="180.17" height="179.92"/>
<g>
	<path class="st1" d="M98.51,6.83h2.23c5.75,0.35,11.39,2.55,15.77,6.3c3.73,3.21,6.54,7.44,8.16,12.07
		c2.09,5.96,2.27,12.38,1.9,18.63c-0.27,1.75-0.24,3.55-0.79,5.25c-0.72,2.37-1.35,4.77-2.18,7.11
		c-3.66,10.4-9.69,19.96-17.45,27.79c-3.89,3.92-8.25,7.37-12.92,10.32c-1.71,1.1-3.43,2.19-5.2,3.21
		c-0.95,0.52-1.91,1.08-2.99,1.25c0.51-4.45,1.17-8.89,1.72-13.33c0.04-0.18,0.01-0.4,0.19-0.51c2.3-1.7,4.42-3.61,6.57-5.5
		c3.46-3.12,6.96-6.22,10.08-9.7c3.53-3.94,6.11-8.62,8.23-13.44c2.58-5.95,4.38-12.39,4.13-18.93c-0.21-4.76-1.45-9.63-4.32-13.51
		c-1.5-2.03-3.44-3.77-5.72-4.87c-3.38-1.64-7.41-1.87-10.95-0.59c-3.75,1.35-6.81,4.23-8.83,7.62c-2.51,4.13-3.52,8.98-3.88,13.74
		c-0.34,4.52-0.31,9.06-0.48,13.58c-0.29,8.65-0.58,17.3-1.24,25.93c-0.12,2.59-0.55,5.14-0.96,7.69
		c-1.93,11.51-5.4,22.89-11.34,32.98c-2.82,4.76-6.13,9.29-10.25,13.01c-3.62,3.28-7.94,5.88-12.7,7.11
		c-5.69,1.51-11.98,1.11-17.23-1.65c-4.32-2.23-7.94-5.93-9.71-10.49c-0.79-1.97-1.18-4.07-1.36-6.17v-2.05
		c0.17-2.43,0.69-4.85,1.72-7.07c2.25-4.92,6.63-8.77,11.76-10.47c2.26,3.14,4.43,6.35,6.65,9.52c-1.72,0.31-3.39,0.9-4.88,1.82
		c-1.81,1.12-3.36,2.79-4.01,4.85c-0.59,1.79-0.41,3.77,0.33,5.48c1.18,2.73,3.59,4.9,6.45,5.74c2.98,0.9,6.21,0.53,9.08-0.55
		c4.55-1.71,8.24-5.14,11.14-8.97c3.15-4.2,5.64-8.86,7.66-13.69c2.4-5.73,3.96-11.77,5.23-17.84c0.65-2.52,0.97-5.11,1.26-7.7
		c0.42-3.73,0.65-7.49,0.79-11.24c0.31-9.43,0.46-18.87,0.94-28.29c0.4-6.61,1.73-13.28,4.81-19.2c2.3-4.46,5.71-8.37,9.92-11.11
		C89.6,8.52,94.01,7.05,98.51,6.83z"/>
	<path class="st2" d="M80.58,120.77c-1.51,0.14-3.04,0.13-4.55,0.24c-2.42,3.9-4.9,7.76-7.32,11.65
		c14.41,1.43,29.27-1.97,41.61-9.55c2.42-1.49,4.74-3.14,6.95-4.93c2.13-1.73,4.38-3.59,6.16-5.69c-1.46-1.32-3.01-2.58-4.54-3.82
		c-0.78-0.64-1.58-1.25-2.41-1.83c-0.24-0.16-2.42-1.7-2.58-1.54C104.96,114,93.01,119.62,80.58,120.77z"/>
	<path class="st1" d="M135.63,40.83c-0.32-0.59-0.75-1.13-1.3-1.53c-1.29,6.06-2.56,12.11-3.84,18.17
		c-0.07,1.11,0.21,2.21,0.29,3.31c0.76,7.14-0.3,14.4-2.58,21.19c-1.7,5.03-4.02,9.85-6.87,14.32c-2.13,3.28-4.63,6.3-7.43,9.02
		c3.55,1.78,6.46,4.71,9.54,7.19c3.57-3.74,6.72-7.88,9.35-12.33c2.74-4.64,4.75-9.68,6.41-14.8c0.69-2.17,1.38-4.34,1.88-6.56
		C143.98,66.05,142.07,52.23,135.63,40.83z"/>
	<path class="st2" d="M52.07,112.52c1.72-2.93,3.46-5.84,5.19-8.76c-1.39-1.43-2.85-2.79-4.18-4.27c-2-2.18-3.88-4.52-5.49-7.02
		c-3.37,0.44-6.64,1.68-9.82,2.88c0.99,1.81,2.1,3.57,3.3,5.25C44.22,105,47.89,109.07,52.07,112.52z"/>
	<path class="st1" d="M52.24,54.93c-3.73,0.14-7.37,1.48-10.39,3.67c-4.21,3.03-7.28,7.58-8.56,12.6
		c-1.19,4.55-1.01,9.41,0.26,13.92c1.01,3.55,2.44,6.99,4.21,10.23c3.18-1.2,6.45-2.44,9.82-2.88c-1.66-2.58-3.03-5.33-3.94-8.27
		c-0.93-3.1-1.46-6.41-0.93-9.63c0.38-2.41,1.61-4.67,3.5-6.22c2.44-2.06,5.73-3.04,8.91-2.77c3.29,0.24,6.38,1.64,9.03,3.55
		c0.22-3.95,0.42-7.9,0.63-11.85C60.79,55.76,56.53,54.76,52.24,54.93z"/>
	<path class="st2" d="M138.08,128.9c-4.56,3.34-9.85,5.69-15.42,6.69c-5.33,0.96-10.81,0.75-16.16-0.03
		c-0.49-0.06-1.01-0.22-1.49-0.04c-5.58,1.66-11.17,3.3-16.75,4.96c5.04,2.56,10.47,4.34,16.04,5.33
		c5.74,0.96,11.61,1.52,17.42,0.84c7.02-0.82,13.83-3.3,19.8-7.07c0.74-0.45,1.47-0.92,2.19-1.4
		C142.47,134.65,140.67,131.4,138.08,128.9z"/>
	<path class="st1" d="M163.64,90.51c-1.7-9.82-6.57-19.04-13.68-26.02c-0.67,4.61-1.32,9.22-1.99,13.83
		c-0.11,0.36,0.12,0.68,0.28,0.98c5.29,8.9,6.64,20,3.77,29.94c-2.24,7.91-7.34,14.82-13.94,19.65c2.6,2.5,4.39,5.76,5.63,9.29
		c3.15-2.12,6.06-4.6,8.58-7.44c6.1-6.85,10.01-15.53,11.46-24.56c0.39-2.38,0.54-4.79,0.67-7.19v-0.66
		C164.28,95.71,164.1,93.09,163.64,90.51z"/>
</g>
<g>
	<path class="st1" d="M33.79,170.83H21.26v-17.89h3.58v14.31h8.94V170.83z"/>
	<path class="st1" d="M48.2,164.04c0,1-0.18,1.93-0.54,2.79c-0.36,0.86-0.84,1.61-1.46,2.23c-0.62,0.63-1.34,1.12-2.16,1.48
		c-0.83,0.36-1.71,0.54-2.66,0.54c-0.94,0-1.82-0.18-2.65-0.54c-0.83-0.36-1.55-0.86-2.17-1.48s-1.11-1.37-1.47-2.23
		c-0.36-0.86-0.54-1.79-0.54-2.79c0-1.01,0.18-1.95,0.54-2.82c0.36-0.87,0.85-1.61,1.47-2.24s1.34-1.12,2.17-1.48
		s1.71-0.54,2.65-0.54c0.95,0,1.84,0.17,2.66,0.5s1.55,0.82,2.16,1.43c0.62,0.62,1.1,1.36,1.46,2.23
		C48.02,162,48.2,162.97,48.2,164.04z M44.77,164.04c0-0.55-0.09-1.04-0.27-1.49c-0.18-0.45-0.42-0.83-0.73-1.15
		s-0.67-0.57-1.08-0.74c-0.41-0.17-0.85-0.26-1.32-0.26s-0.9,0.09-1.32,0.26c-0.41,0.17-0.77,0.42-1.07,0.74
		c-0.3,0.32-0.54,0.7-0.72,1.15c-0.17,0.45-0.26,0.94-0.26,1.49c0,0.52,0.09,0.99,0.26,1.43c0.17,0.44,0.41,0.82,0.72,1.15
		c0.3,0.32,0.66,0.58,1.07,0.77s0.85,0.28,1.32,0.28s0.9-0.09,1.32-0.26s0.77-0.42,1.08-0.74c0.31-0.32,0.55-0.7,0.73-1.15
		C44.68,165.07,44.77,164.58,44.77,164.04z"/>
	<path class="st1" d="M63.01,169.15c0,0.94-0.18,1.82-0.54,2.64c-0.36,0.82-0.85,1.54-1.47,2.16s-1.34,1.1-2.17,1.46
		c-0.83,0.36-1.71,0.54-2.65,0.54l-1.71-0.02v-3.41l1.68,0.03c0.53,0,0.99-0.07,1.36-0.21c0.37-0.14,0.69-0.32,0.95-0.56
		c0.26-0.24,0.46-0.51,0.62-0.82c0.15-0.31,0.28-0.63,0.37-0.97c-0.13,0.22-0.32,0.39-0.57,0.53c-0.25,0.14-0.53,0.25-0.83,0.34
		c-0.3,0.09-0.62,0.15-0.95,0.18c-0.33,0.03-0.63,0.05-0.92,0.05c-0.94,0-1.82-0.16-2.65-0.49s-1.55-0.79-2.17-1.39
		c-0.62-0.6-1.11-1.34-1.47-2.21s-0.54-1.86-0.54-2.96c0-1.01,0.18-1.94,0.54-2.81c0.36-0.86,0.85-1.61,1.47-2.25
		s1.34-1.13,2.17-1.48s1.71-0.54,2.65-0.54c0.43,0,0.86,0.05,1.28,0.16c0.42,0.11,0.84,0.26,1.24,0.45c0.4,0.19,0.78,0.42,1.14,0.67
		c0.36,0.26,0.7,0.54,1.02,0.84l1.32-1.58h0.82V169.15z M59.58,164.04c0-0.46-0.09-0.92-0.27-1.35c-0.18-0.44-0.42-0.82-0.73-1.16
		c-0.31-0.34-0.67-0.61-1.08-0.81c-0.41-0.2-0.85-0.31-1.32-0.31s-0.9,0.08-1.32,0.24s-0.77,0.39-1.07,0.7
		c-0.3,0.31-0.54,0.69-0.72,1.14c-0.17,0.45-0.26,0.97-0.26,1.55c0,0.56,0.09,1.06,0.26,1.5c0.17,0.44,0.41,0.83,0.72,1.14
		c0.3,0.32,0.66,0.56,1.07,0.73c0.41,0.17,0.85,0.26,1.32,0.26s0.9-0.1,1.32-0.31c0.41-0.2,0.77-0.47,1.08-0.81s0.55-0.72,0.73-1.16
		C59.5,164.95,59.58,164.5,59.58,164.04z"/>
	<path class="st1" d="M83.5,161.96c0,0.85-0.11,1.67-0.33,2.45c-0.22,0.79-0.53,1.52-0.93,2.21c-0.4,0.69-0.88,1.31-1.45,1.88
		c-0.57,0.57-1.19,1.05-1.87,1.45c-0.68,0.4-1.42,0.72-2.21,0.94c-0.79,0.22-1.61,0.33-2.46,0.33s-1.67-0.11-2.45-0.33
		c-0.79-0.22-1.52-0.53-2.21-0.94c-0.69-0.4-1.31-0.89-1.88-1.45c-0.57-0.57-1.05-1.19-1.45-1.88c-0.4-0.69-0.72-1.42-0.94-2.21
		s-0.33-1.6-0.33-2.45s0.11-1.67,0.33-2.46s0.53-1.53,0.94-2.21c0.4-0.68,0.89-1.31,1.45-1.87s1.19-1.05,1.88-1.45
		s1.42-0.71,2.21-0.93c0.79-0.22,1.6-0.33,2.45-0.33s1.67,0.11,2.46,0.33c0.79,0.22,1.53,0.53,2.21,0.93
		c0.68,0.4,1.31,0.88,1.87,1.45c0.57,0.57,1.05,1.19,1.45,1.87c0.4,0.68,0.71,1.42,0.93,2.21C83.39,160.3,83.5,161.12,83.5,161.96z
		 M79.94,161.96c0-0.78-0.15-1.52-0.45-2.21s-0.7-1.3-1.22-1.81c-0.51-0.51-1.11-0.92-1.81-1.22c-0.69-0.3-1.43-0.45-2.21-0.45
		c-0.79,0-1.53,0.15-2.22,0.45c-0.69,0.3-1.29,0.71-1.81,1.22c-0.52,0.51-0.92,1.12-1.22,1.81s-0.45,1.43-0.45,2.21
		c0,0.78,0.15,1.52,0.45,2.2c0.3,0.69,0.71,1.29,1.22,1.8s1.12,0.92,1.81,1.22c0.69,0.3,1.43,0.45,2.22,0.45
		c0.78,0,1.52-0.15,2.21-0.45c0.69-0.3,1.3-0.71,1.81-1.22c0.51-0.52,0.92-1.12,1.22-1.8C79.79,163.48,79.94,162.75,79.94,161.96z"
		/>
	<path class="st1" d="M88.89,170.83h-3.41v-13.36h0.82l1.12,1.58c0.55-0.5,1.17-0.88,1.87-1.15c0.7-0.27,1.42-0.41,2.17-0.41h3.01
		v3.39h-3.01c-0.36,0-0.69,0.07-1.01,0.2s-0.59,0.32-0.82,0.55s-0.42,0.51-0.55,0.82c-0.13,0.32-0.2,0.65-0.2,1.01V170.83z"/>
	<path class="st1" d="M100.08,153.84c0,0.32-0.06,0.61-0.18,0.89c-0.12,0.27-0.28,0.51-0.49,0.72s-0.45,0.37-0.73,0.49
		c-0.28,0.12-0.58,0.18-0.89,0.18s-0.61-0.06-0.89-0.18c-0.28-0.12-0.52-0.28-0.72-0.49s-0.37-0.44-0.49-0.72
		c-0.12-0.27-0.18-0.57-0.18-0.89c0-0.31,0.06-0.6,0.18-0.88c0.12-0.28,0.28-0.52,0.49-0.72s0.44-0.37,0.72-0.49
		c0.28-0.12,0.58-0.18,0.89-0.18s0.61,0.06,0.89,0.18c0.28,0.12,0.52,0.28,0.73,0.49s0.37,0.45,0.49,0.72
		C100.02,153.24,100.08,153.54,100.08,153.84z M99.49,170.83h-3.43v-13.36h3.43V170.83z"/>
	<path class="st1" d="M107.4,167.57c0.13,0.04,0.27,0.07,0.4,0.08c0.13,0.01,0.27,0.02,0.4,0.02c0.33,0,0.65-0.05,0.96-0.14
		s0.6-0.22,0.87-0.39c0.27-0.17,0.51-0.38,0.72-0.62s0.38-0.52,0.52-0.82l2.5,2.51c-0.32,0.45-0.68,0.85-1.09,1.21
		c-0.41,0.36-0.86,0.66-1.33,0.91c-0.48,0.25-0.98,0.44-1.51,0.57c-0.53,0.13-1.07,0.19-1.63,0.19c-0.94,0-1.82-0.17-2.65-0.52
		s-1.55-0.84-2.17-1.46c-0.62-0.62-1.11-1.37-1.47-2.23c-0.36-0.86-0.54-1.81-0.54-2.84c0-1.06,0.18-2.02,0.54-2.89
		c0.36-0.87,0.85-1.62,1.47-2.23c0.62-0.62,1.34-1.09,2.17-1.43c0.83-0.34,1.71-0.51,2.65-0.51c0.56,0,1.1,0.07,1.63,0.2
		s1.04,0.32,1.52,0.57c0.48,0.25,0.92,0.55,1.34,0.92c0.42,0.36,0.78,0.77,1.1,1.22L107.4,167.57z M109.14,160.54
		c-0.16-0.06-0.31-0.1-0.47-0.11c-0.15-0.02-0.31-0.03-0.48-0.03c-0.47,0-0.91,0.09-1.32,0.26c-0.41,0.17-0.77,0.41-1.07,0.73
		c-0.3,0.32-0.54,0.7-0.72,1.14c-0.17,0.45-0.26,0.95-0.26,1.5c0,0.12,0.01,0.27,0.02,0.42s0.03,0.32,0.06,0.48
		c0.03,0.16,0.06,0.32,0.11,0.47c0.04,0.15,0.1,0.28,0.16,0.4L109.14,160.54z"/>
	<path class="st1" d="M118.9,170.83h-3.41v-13.36h0.82l1.12,1.3c0.55-0.5,1.17-0.88,1.87-1.15c0.69-0.27,1.42-0.41,2.18-0.41
		c0.81,0,1.58,0.16,2.31,0.47c0.72,0.31,1.36,0.74,1.9,1.29c0.54,0.54,0.97,1.18,1.28,1.91c0.31,0.73,0.47,1.5,0.47,2.33v7.63h-3.41
		v-7.63c0-0.35-0.07-0.68-0.2-0.99s-0.32-0.58-0.55-0.82c-0.23-0.23-0.5-0.42-0.81-0.55c-0.31-0.13-0.64-0.2-0.99-0.2
		c-0.36,0-0.69,0.07-1.01,0.2c-0.32,0.13-0.59,0.32-0.82,0.55c-0.23,0.23-0.42,0.51-0.55,0.82s-0.2,0.64-0.2,0.99V170.83z"/>
	<path class="st1" d="M136.55,170.83c-0.82,0-1.6-0.16-2.32-0.47s-1.36-0.74-1.9-1.29c-0.54-0.54-0.97-1.18-1.29-1.9
		c-0.31-0.72-0.47-1.5-0.47-2.32v-3.97h-1.66v-3.39h1.66v-5.34h3.39v5.34h5.16v3.39h-5.16v3.97c0,0.36,0.07,0.69,0.2,1
		c0.13,0.31,0.32,0.58,0.55,0.82c0.23,0.23,0.51,0.42,0.82,0.56c0.32,0.14,0.65,0.21,1.01,0.21h2.58v3.39H136.55z"/>
	<path class="st1" d="M153.98,170.83h-0.82l-1.32-1.83c-0.32,0.29-0.67,0.56-1.03,0.82c-0.36,0.25-0.74,0.47-1.14,0.66
		s-0.81,0.33-1.23,0.44c-0.42,0.11-0.85,0.16-1.28,0.16c-0.94,0-1.82-0.16-2.65-0.47c-0.83-0.32-1.55-0.78-2.17-1.38
		c-0.62-0.6-1.11-1.34-1.47-2.21c-0.36-0.87-0.54-1.87-0.54-2.98c0-1.04,0.18-1.99,0.54-2.86c0.36-0.87,0.85-1.62,1.47-2.24
		c0.62-0.62,1.34-1.11,2.17-1.45s1.71-0.52,2.65-0.52c0.43,0,0.86,0.05,1.28,0.16s0.84,0.26,1.24,0.45s0.78,0.42,1.14,0.67
		c0.36,0.26,0.7,0.54,1.02,0.84l1.32-1.58h0.82V170.83z M150.55,164.04c0-0.46-0.09-0.92-0.27-1.35c-0.18-0.44-0.42-0.82-0.73-1.16
		c-0.31-0.34-0.67-0.61-1.08-0.81c-0.41-0.2-0.85-0.31-1.32-0.31c-0.47,0-0.91,0.08-1.32,0.24c-0.41,0.16-0.77,0.39-1.07,0.7
		s-0.54,0.69-0.72,1.14s-0.26,0.97-0.26,1.55c0,0.58,0.09,1.1,0.26,1.55s0.41,0.83,0.72,1.14c0.3,0.31,0.66,0.54,1.07,0.7
		c0.41,0.16,0.85,0.24,1.32,0.24c0.46,0,0.9-0.1,1.32-0.31c0.41-0.2,0.77-0.47,1.08-0.81s0.55-0.72,0.73-1.16
		S150.55,164.5,150.55,164.04z"/>
	<path class="st1" d="M160,170.83h-3.43v-18.67H160V170.83z"/>
</g>
</svg>
